<svg width="17" height="17" viewBox="0 0 17 17" fill="none" xmlns="http://www.w3.org/2000/svg">
<path d="M2.5 8.5C2.5 11.8138 5.1862 14.5 8.5 14.5C9.5926 14.5 10.618 14.2078 11.5 13.6972M8.5 2.5C11.8138 2.5 14.5 5.1862 14.5 8.5C14.5 9.5926 14.2078 10.618 13.6972 11.5" stroke="#A1A1AA" stroke-width="0.875" stroke-linecap="round"/>
<path d="M8.5 6.70312V9.10312H10.9" stroke="#A1A1AA" stroke-width="0.875" stroke-linecap="round" stroke-linejoin="round"/>
<path d="M11.5 13.6972C10.5882 14.2245 9.55327 14.5015 8.5 14.5C5.1862 14.5 2.5 11.8138 2.5 8.5C2.5 5.1862 5.1862 2.5 8.5 2.5C11.8138 2.5 14.5 5.1862 14.5 8.5C14.5 9.5926 14.2078 10.618 13.6972 11.5" stroke="#A1A1AA" stroke-width="0.875" stroke-linecap="round" stroke-dasharray="0.29 2.04"/>
</svg>
